<svg xmlns="http://www.w3.org/2000/svg" viewBox="0 0 900 380" width="900" height="380" font-family="ui-sans-serif,-apple-system,Segoe UI,Roboto,sans-serif">
<rect width="900" height="380" fill="#fcfcfb"/>
<line x1="58" y1="269.4" x2="768" y2="269.4" stroke="#e1e0d9" stroke-width="1"/>
<text x="48" y="273.4" text-anchor="end" font-size="11" fill="#898781">25</text>
<line x1="58" y1="186.0" x2="768" y2="186.0" stroke="#e1e0d9" stroke-width="1"/>
<text x="48" y="190.0" text-anchor="end" font-size="11" fill="#898781">50</text>
<line x1="58" y1="102.6" x2="768" y2="102.6" stroke="#e1e0d9" stroke-width="1"/>
<text x="48" y="106.6" text-anchor="end" font-size="11" fill="#898781">100</text>
<text x="184.4" y="366" text-anchor="middle" font-size="11" fill="#898781">2022</text>
<text x="311.8" y="366" text-anchor="middle" font-size="11" fill="#898781">2023</text>
<text x="439.2" y="366" text-anchor="middle" font-size="11" fill="#898781">2024</text>
<text x="566.9" y="366" text-anchor="middle" font-size="11" fill="#898781">2025</text>
<text x="694.3" y="366" text-anchor="middle" font-size="11" fill="#898781">2026</text>
<line x1="58" y1="340" x2="768" y2="340" stroke="#c3c2b7" stroke-width="1"/>
<path d="M58.0,102.6 L58.3,102.9 L58.7,103.9 L59.0,102.0 L59.4,101.2 L60.4,102.4 L60.8,102.6 L61.1,102.5 L61.5,102.0 L61.8,101.9 L62.9,102.9 L63.2,101.4 L63.6,100.9 L63.9,100.0 L64.3,100.5 L65.3,100.0 L66.0,100.8 L66.4,103.2 L66.7,103.9 L67.8,102.9 L68.1,101.0 L68.5,100.1 L68.8,101.0 L69.2,99.7 L70.2,99.0 L70.6,100.1 L70.9,99.4 L71.3,99.6 L71.6,100.3 L72.7,99.0 L73.0,98.1 L73.4,98.7 L73.7,98.6 L74.1,100.3 L75.1,100.5 L75.5,99.4 L75.8,100.4 L76.2,99.3 L76.5,102.2 L77.5,99.9 L77.9,100.4 L78.2,99.4 L78.6,99.9 L78.9,100.8 L80.0,100.3 L80.3,99.7 L80.7,100.7 L81.0,100.6 L81.4,99.7 L82.4,99.5 L82.8,98.6 L83.1,99.2 L83.5,100.1 L83.8,100.0 L84.9,100.0 L85.2,100.1 L85.6,99.5 L85.9,99.4 L86.3,98.6 L87.3,99.1 L87.7,100.2 L88.0,99.4 L88.4,98.5 L90.1,97.6 L90.5,96.9 L90.8,95.7 L91.2,95.7 L92.2,96.0 L92.6,96.0 L92.9,95.2 L93.3,94.5 L93.6,94.5 L94.7,94.5 L95.0,95.4 L95.4,95.8 L95.7,94.6 L96.0,94.6 L97.1,94.8 L97.4,95.0 L97.8,94.4 L98.1,94.2 L98.5,95.4 L99.5,95.1 L99.9,94.4 L100.2,94.0 L100.6,94.6 L100.9,94.2 L102.0,92.5 L102.3,93.8 L102.7,94.7 L103.0,95.5 L103.4,95.0 L104.4,94.5 L104.8,93.9 L105.1,96.5 L105.5,94.8 L105.8,94.7 L106.9,94.4 L107.2,93.2 L107.6,93.5 L107.9,93.5 L108.3,92.1 L109.3,92.4 L109.7,92.7 L110.0,91.5 L110.4,90.8 L110.7,90.2 L111.8,90.4 L112.1,90.2 L112.5,90.5 L112.8,90.0 L113.2,89.8 L114.5,88.6 L114.9,88.6 L115.2,89.0 L115.6,89.0 L116.6,91.1 L117.0,89.4 L117.3,90.1 L117.7,90.9 L118.0,89.9 L119.1,89.9 L119.4,89.8 L119.8,89.7 L120.1,90.4 L120.5,89.7 L121.5,89.6 L121.9,90.7 L122.2,89.4 L122.6,89.2 L122.9,90.4 L124.0,89.4 L124.3,89.4 L124.7,89.0 L125.0,89.4 L125.4,89.1 L126.4,90.2 L126.8,90.7 L127.1,89.7 L127.5,88.5 L127.8,88.3 L128.9,88.3 L129.2,87.8 L129.6,88.7 L129.9,88.0 L130.3,88.3 L131.3,86.8 L131.7,87.1 L132.0,86.7 L132.4,86.4 L132.7,86.2 L133.7,86.0 L134.1,85.7 L134.4,85.4 L134.8,85.2 L135.1,84.4 L136.2,85.1 L136.5,86.2 L136.9,86.2 L137.2,86.8 L137.6,86.8 L138.6,86.4 L139.0,86.0 L139.3,85.5 L139.7,86.3 L140.0,86.3 L141.1,85.9 L141.4,85.4 L141.8,85.6 L142.1,85.5 L142.5,84.9 L143.5,84.7 L143.9,84.6 L144.2,85.0 L144.6,87.1 L144.9,86.6 L146.0,86.2 L146.3,86.0 L146.7,86.4 L147.0,85.7 L147.4,86.8 L148.4,89.2 L148.8,88.7 L149.1,88.3 L149.5,87.0 L149.8,87.6 L150.9,86.8 L151.2,88.6 L151.5,89.9 L151.9,88.2 L152.2,90.1 L153.3,88.6 L153.6,89.1 L154.0,89.8 L154.3,88.9 L154.7,88.0 L155.7,88.2 L156.1,88.7 L156.4,88.5 L156.8,87.9 L157.1,87.0 L158.2,86.9 L158.5,86.9 L158.9,86.1 L159.2,86.3 L159.6,86.3 L160.6,85.9 L161.0,85.9 L161.3,85.7 L161.7,86.1 L162.0,88.0 L163.1,87.1 L163.4,87.7 L163.8,86.6 L164.1,86.0 L164.5,85.4 L165.5,85.5 L165.9,85.6 L166.2,85.9 L166.6,86.6 L166.9,85.5 L168.0,85.1 L168.3,85.8 L168.7,86.6 L169.0,86.4 L169.4,86.2 L170.4,86.9 L170.7,85.9 L171.1,86.0 L171.4,86.0 L171.8,88.0 L172.8,88.5 L173.2,88.4 L173.5,88.7 L173.9,88.9 L174.2,88.6 L175.3,88.5 L175.6,87.4 L176.0,85.7 L176.3,86.3 L176.7,86.8 L177.7,86.4 L178.1,86.4 L178.4,87.4 L178.8,87.7 L179.1,87.3 L180.2,87.8 L180.5,86.7 L180.9,86.6 L181.2,86.3 L181.6,85.7 L183.3,84.2 L183.7,84.0 L184.0,85.1 L185.4,82.8 L185.8,83.1 L186.1,86.5 L186.5,85.0 L187.5,85.2 L187.9,86.1 L188.2,85.3 L188.6,84.8 L188.9,86.1 L189.9,85.6 L190.3,85.8 L190.6,87.1 L191.0,86.8 L191.3,89.5 L192.4,90.2 L192.7,93.2 L193.4,95.4 L193.8,92.7 L194.8,93.1 L195.2,91.9 L195.5,91.0 L195.9,91.2 L196.2,90.8 L197.3,90.6 L197.6,89.4 L198.0,88.1 L198.3,87.7 L198.7,89.0 L199.7,88.5 L200.1,88.9 L200.4,87.5 L200.8,87.5 L201.1,88.6 L202.2,88.4 L202.5,89.9 L202.9,88.8 L203.2,91.8 L203.6,91.5 L204.6,90.9 L205.0,89.8 L205.3,89.3 L205.7,88.6 L206.0,89.3 L207.1,90.5 L207.4,91.4 L207.7,90.2 L208.1,88.7 L208.4,89.9 L209.5,88.4 L209.8,89.2 L210.2,87.9 L210.5,86.5 L210.9,86.2 L211.9,86.2 L212.3,85.2 L212.6,84.5 L213.0,84.4 L213.3,84.0 L214.4,83.9 L214.7,83.1 L215.1,82.4 L215.4,82.5 L215.8,82.6 L216.8,82.4 L217.2,82.1 L217.5,82.9 L217.9,83.5 L218.2,82.9 L219.3,82.8 L219.6,83.4 L220.0,82.9 L220.3,82.2 L222.1,81.5 L222.4,81.4 L222.8,81.0 L223.1,83.0 L224.5,85.4 L224.9,86.4 L225.2,85.0 L225.6,83.6 L226.6,85.1 L226.9,85.4 L227.3,85.7 L227.6,84.6 L228.0,87.4 L229.0,88.7 L229.4,89.8 L229.7,89.6 L230.1,91.7 L230.4,89.3 L231.5,88.8 L231.8,88.5 L232.2,87.4 L232.5,89.2 L232.9,87.8 L233.9,87.8 L234.3,88.2 L234.6,87.7 L235.0,88.6 L235.3,87.3 L236.4,85.6 L236.7,86.8 L237.1,86.5 L237.4,87.4 L237.8,86.3 L238.8,86.9 L239.2,88.7 L239.5,88.2 L239.9,90.0 L240.2,91.4 L241.6,95.6 L242.0,97.4 L242.3,97.5 L242.7,99.8 L243.7,100.3 L244.1,98.8 L244.4,98.5 L244.8,98.7 L245.1,97.9 L246.1,95.4 L246.5,94.5 L246.8,95.4 L247.2,97.8 L247.5,98.3 L248.6,96.9 L248.9,96.4 L249.3,97.4 L249.6,96.4 L250.0,95.8 L251.0,97.2 L251.4,97.1 L251.7,97.0 L252.1,96.3 L252.4,97.2 L253.5,95.7 L253.8,96.3 L254.2,94.5 L254.5,93.7 L254.9,93.8 L255.9,93.9 L256.3,93.5 L256.6,93.1 L257.0,92.1 L257.3,91.1 L258.4,90.3 L258.7,90.2 L259.1,90.7 L259.4,90.6 L259.8,89.9 L260.8,89.8 L261.2,89.7 L261.5,90.3 L261.9,89.0 L262.2,89.6 L263.3,88.9 L263.6,88.2 L263.9,87.6 L264.3,88.0 L264.6,87.9 L265.7,89.1 L266.0,90.5 L266.4,89.7 L266.7,88.9 L267.1,87.8 L268.1,90.2 L268.5,89.6 L268.8,89.8 L269.2,91.4 L269.5,91.7 L270.6,91.3 L270.9,91.4 L271.3,93.1 L271.6,90.8 L272.0,89.9 L273.0,88.7 L273.4,87.9 L273.7,91.2 L274.1,90.8 L274.4,92.6 L275.5,92.8 L275.8,91.4 L276.2,93.2 L276.9,95.4 L277.9,97.2 L278.3,96.8 L278.6,97.4 L279.0,95.8 L279.3,97.3 L280.4,97.7 L280.7,93.3 L281.1,91.2 L281.4,91.2 L281.8,92.0 L282.8,93.7 L283.1,94.1 L283.5,94.1 L283.8,94.2 L284.2,92.1 L285.2,93.8 L285.6,91.6 L285.9,91.4 L286.3,92.8 L286.6,93.7 L287.7,91.7 L288.0,91.4 L288.4,91.2 L288.7,90.5 L289.1,91.7 L290.1,90.3 L290.5,88.3 L290.8,88.1 L291.2,90.4 L291.5,89.8 L292.6,89.0 L292.9,88.5 L293.3,87.7 L293.6,88.4 L294.0,85.0 L295.0,85.3 L295.4,85.2 L295.7,85.5 L296.1,85.1 L296.4,84.8 L297.5,85.1 L297.8,84.4 L298.2,83.6 L298.5,83.2 L298.9,83.1 L299.9,83.6 L300.3,83.2 L300.6,82.6 L300.9,81.5 L301.3,82.3 L302.3,81.9 L302.7,82.4 L303.0,83.5 L303.4,84.4 L303.7,83.8 L304.8,84.3 L305.1,84.0 L305.5,83.2 L305.8,83.9 L306.2,84.9 L307.2,85.2 L307.6,87.0 L307.9,85.5 L308.3,84.8 L308.6,85.6 L310.4,86.0 L310.7,87.0 L311.1,86.6 L312.5,88.2 L312.8,86.4 L313.2,86.1 L313.5,85.4 L314.6,84.7 L314.9,85.1 L315.3,83.9 L315.6,82.5 L316.0,81.7 L317.0,80.7 L317.4,80.8 L317.7,80.7 L318.1,80.0 L318.4,79.7 L319.5,79.7 L319.8,79.0 L320.1,79.4 L320.8,79.2 L321.9,79.2 L322.2,79.3 L322.6,78.9 L322.9,78.8 L323.3,77.9 L324.3,78.4 L324.7,79.0 L325.0,78.5 L325.4,79.1 L325.7,80.0 L326.8,80.3 L327.1,80.1 L327.5,81.3 L327.8,80.4 L328.2,81.3 L329.2,81.3 L329.6,81.4 L329.9,81.7 L330.3,82.0 L330.6,81.7 L331.7,82.9 L332.0,82.3 L332.4,82.3 L332.7,82.3 L333.1,81.8 L334.1,80.9 L334.5,80.3 L334.8,81.1 L335.2,80.4 L335.5,83.2 L336.6,83.9 L336.9,85.6 L337.3,84.6 L337.6,86.2 L338.0,85.7 L339.0,87.3 L339.3,86.4 L339.7,85.3 L340.0,86.1 L340.4,86.3 L341.4,86.2 L341.8,85.1 L342.1,84.7 L342.5,83.5 L342.8,82.6 L343.9,81.8 L344.2,81.6 L344.6,81.6 L344.9,82.0 L346.7,80.4 L347.0,79.9 L347.4,80.3 L347.7,79.6 L348.8,79.2 L349.1,79.6 L349.5,79.5 L349.8,79.6 L350.2,80.1 L351.2,80.2 L351.9,80.3 L352.3,80.7 L352.6,80.4 L353.7,79.9 L354.0,81.1 L354.4,82.3 L354.7,82.3 L355.1,82.0 L356.1,81.0 L356.5,81.2 L356.8,81.2 L357.1,81.2 L357.5,81.0 L358.5,80.7 L358.9,81.2 L359.2,81.8 L359.6,81.1 L359.9,80.4 L361.0,80.6 L361.3,80.7 L361.7,81.5 L362.0,82.7 L362.4,82.5 L363.4,81.4 L363.8,81.5 L364.1,83.5 L364.5,83.2 L364.8,82.6 L365.9,81.4 L366.2,82.9 L366.6,83.0 L366.9,83.4 L367.3,83.0 L368.7,82.7 L369.0,82.3 L369.4,82.1 L369.7,80.8 L370.8,80.1 L371.1,79.0 L371.5,79.8 L371.8,81.7 L372.2,83.3 L373.2,83.7 L373.6,83.0 L373.9,81.7 L374.3,81.6 L374.6,81.5 L375.6,80.7 L376.0,80.2 L376.3,80.6 L376.7,82.1 L377.0,84.1 L378.1,84.7 L378.4,83.0 L378.8,82.5 L379.1,80.7 L379.5,79.8 L380.5,79.8 L380.9,80.1 L381.2,79.4 L381.6,79.4 L381.9,79.5 L383.0,79.7 L383.3,79.2 L383.7,78.1 L384.0,77.2 L384.4,78.1 L385.4,78.0 L385.8,77.4 L386.1,78.9 L386.5,79.6 L386.8,79.4 L387.9,79.7 L388.2,79.7 L388.6,79.1 L388.9,78.8 L389.3,79.1 L390.3,80.1 L390.7,79.7 L391.0,81.2 L391.4,82.0 L391.7,82.0 L392.8,82.5 L393.1,82.4 L393.5,82.0 L393.8,81.3 L394.2,82.5 L395.2,81.6 L395.5,80.8 L395.9,79.2 L396.2,78.9 L396.6,79.3 L397.6,78.6 L398.0,78.6 L398.3,79.5 L398.7,80.5 L399.0,80.7 L400.1,80.1 L400.4,79.8 L400.8,80.6 L401.1,80.1 L401.5,78.6 L402.5,79.3 L402.9,79.9 L403.2,80.5 L403.6,82.1 L403.9,82.0 L405.0,81.9 L405.3,82.5 L405.7,82.6 L406.0,82.8 L406.4,82.4 L407.4,82.6 L407.8,84.3 L408.1,85.1 L408.5,84.4 L408.8,84.0 L409.9,83.7 L410.2,82.5 L410.6,81.7 L410.9,81.6 L411.3,82.3 L412.3,82.7 L412.7,82.2 L413.0,81.9 L413.3,83.6 L413.7,84.9 L414.7,85.8 L415.1,85.7 L415.4,85.7 L415.8,86.4 L416.1,86.2 L417.2,87.1 L417.5,87.0 L417.9,86.0 L418.2,85.0 L418.6,83.6 L419.6,83.3 L420.0,83.5 L420.3,83.3 L420.7,82.7 L421.0,83.4 L422.1,83.9 L422.4,82.8 L422.8,81.0 L423.1,81.7 L423.5,81.8 L424.5,81.7 L424.9,81.3 L425.2,81.4 L425.6,82.1 L425.9,81.9 L427.0,82.8 L427.3,82.4 L427.7,82.1 L428.0,81.3 L428.4,81.4 L429.4,80.5 L429.8,81.5 L430.1,79.5 L430.5,79.7 L430.8,79.3 L431.8,79.3 L432.2,78.7 L432.5,78.2 L432.9,76.3 L433.2,75.3 L434.3,75.5 L434.6,74.5 L435.0,73.7 L435.3,74.3 L435.7,74.3 L437.4,73.3 L437.8,72.3 L438.1,72.8 L439.5,72.2 L439.9,73.9 L440.2,74.3 L440.6,74.4 L441.6,74.9 L442.0,73.9 L442.3,74.6 L442.7,74.1 L443.0,74.3 L444.1,74.2 L444.4,75.5 L444.8,75.9 L445.1,76.7 L445.5,75.5 L446.5,74.6 L446.9,73.9 L447.2,73.8 L447.6,73.3 L449.0,72.9 L449.3,72.6 L449.7,71.4 L450.0,72.8 L450.4,71.0 L451.4,72.2 L451.7,72.8 L452.1,72.3 L452.4,71.9 L452.8,71.9 L453.8,72.4 L454.2,72.5 L454.5,73.4 L454.9,72.5 L455.2,71.7 L456.3,71.5 L456.6,71.5 L457.0,72.1 L457.3,72.1 L457.7,71.5 L458.7,71.3 L459.1,71.1 L459.4,71.0 L459.8,70.4 L460.1,69.6 L461.2,69.8 L461.5,69.9 L461.9,69.6 L462.2,68.6 L462.6,67.4 L463.6,69.6 L464.0,69.5 L464.3,69.1 L464.7,69.4 L465.0,70.3 L466.1,69.9 L466.4,69.5 L466.8,69.6 L467.1,68.3 L467.5,68.5 L468.5,67.7 L468.9,68.3 L469.2,67.7 L469.5,66.5 L471.3,66.7 L471.6,68.3 L472.0,67.7 L472.3,68.4 L473.4,68.2 L473.7,67.6 L474.1,67.2 L474.4,67.8 L474.8,68.2 L475.8,68.7 L476.2,70.9 L476.5,71.0 L476.9,70.5 L477.2,71.7 L478.3,70.3 L478.6,69.8 L479.0,69.7 L479.7,71.5 L480.7,70.5 L481.1,70.1 L481.4,71.5 L481.8,71.3 L482.1,70.6 L483.2,69.8 L483.5,67.9 L483.9,67.7 L484.2,68.9 L484.6,68.5 L485.6,68.2 L486.0,68.6 L486.3,68.2 L486.7,66.1 L487.0,67.3 L488.0,66.5 L488.4,66.7 L488.7,66.7 L489.1,67.2 L489.4,68.5 L490.5,67.6 L490.8,67.9 L491.2,69.5 L491.5,70.1 L491.9,68.9 L492.9,68.0 L493.3,68.3 L493.6,67.9 L494.0,67.1 L494.3,66.5 L495.7,68.1 L496.1,68.7 L496.4,68.1 L496.8,68.6 L497.8,68.9 L498.2,67.8 L498.5,68.0 L498.9,67.9 L499.2,67.5 L500.3,68.4 L500.6,66.8 L501.0,67.7 L501.3,67.9 L501.7,67.7 L502.7,68.0 L503.1,68.5 L503.4,68.2 L503.8,66.7 L504.1,66.9 L505.2,67.8 L505.5,66.9 L505.9,67.0 L506.2,65.9 L506.5,64.8 L507.6,63.9 L507.9,64.2 L508.3,63.3 L508.6,63.7 L509.0,64.7 L510.0,65.2 L510.4,64.6 L510.7,64.8 L511.1,66.3 L511.4,65.3 L512.5,64.4 L512.8,64.9 L513.2,62.8 L513.5,62.4 L513.9,65.2 L514.9,69.6 L515.3,69.1 L515.6,68.7 L516.0,69.1 L516.3,67.5 L517.4,67.0 L517.7,66.8 L518.1,66.4 L518.4,66.1 L518.8,64.6 L519.8,64.4 L520.2,64.1 L520.5,63.8 L520.9,63.3 L521.2,63.5 L522.3,62.6 L522.6,62.7 L523.0,62.8 L523.3,63.0 L523.7,62.3 L524.7,62.0 L525.1,62.0 L525.4,64.2 L525.7,63.5 L526.1,63.2 L527.1,63.4 L527.5,63.0 L527.8,63.4 L528.2,61.7 L528.5,61.4 L529.6,61.1 L529.9,60.7 L530.3,60.7 L530.6,60.0 L531.0,59.8 L532.0,60.5 L532.4,60.7 L532.7,60.9 L533.1,59.8 L533.4,59.6 L534.5,57.7 L534.8,58.6 L535.2,58.7 L535.5,58.6 L535.9,59.5 L536.9,58.6 L537.3,58.9 L537.6,58.8 L538.0,58.4 L538.3,58.4 L539.4,57.9 L539.7,56.8 L540.1,57.3 L540.4,56.4 L540.8,57.4 L541.8,56.5 L542.2,58.6 L542.5,58.4 L542.9,58.4 L543.2,58.4 L544.2,58.3 L544.6,57.9 L544.9,58.9 L545.3,59.2 L545.6,59.8 L546.7,59.0 L547.0,59.6 L547.4,58.5 L547.7,58.0 L548.1,57.0 L549.1,57.5 L549.5,57.5 L549.8,58.3 L550.2,57.7 L550.5,56.9 L551.6,56.5 L551.9,55.6 L552.3,56.4 L552.6,56.4 L553.0,55.3 L554.0,54.9 L554.4,55.8 L554.7,55.2 L555.1,54.5 L555.4,54.8 L556.5,54.6 L556.8,53.8 L557.2,54.4 L557.5,54.1 L557.9,54.9 L558.9,54.9 L559.3,55.3 L559.6,55.8 L560.0,56.2 L560.3,56.7 L561.4,57.4 L561.7,56.4 L562.1,56.4 L562.4,58.4 L562.7,60.0 L563.8,58.1 L564.1,57.8 L565.2,57.2 L566.2,57.4 L566.6,58.5 L567.3,57.9 L567.6,57.2 L568.7,57.2 L569.0,56.7 L569.4,55.8 L569.7,56.1 L570.1,56.6 L571.1,58.1 L571.5,57.6 L571.8,57.7 L572.2,56.1 L572.5,56.3 L573.6,55.8 L573.9,55.0 L574.3,54.6 L574.6,55.4 L575.0,54.9 L576.4,55.1 L576.7,54.4 L577.1,53.7 L577.4,53.0 L578.5,55.3 L578.8,55.4 L579.2,54.8 L579.5,53.4 L579.9,53.4 L580.9,53.9 L581.2,53.8 L581.6,53.2 L581.9,53.0 L582.3,52.8 L583.3,53.0 L583.7,53.7 L584.0,54.5 L584.4,56.0 L584.7,56.1 L585.8,56.0 L586.1,56.7 L586.5,56.7 L586.8,56.4 L587.2,57.4 L588.2,56.7 L588.6,57.4 L588.9,58.2 L589.3,58.4 L589.6,60.5 L590.7,60.3 L591.0,61.3 L591.4,62.8 L591.7,63.4 L592.1,62.8 L593.1,61.9 L593.5,61.6 L593.8,62.3 L594.2,60.8 L594.5,60.6 L595.6,60.5 L595.9,60.5 L596.3,59.6 L596.6,59.9 L597.0,60.0 L598.0,62.0 L598.4,60.7 L598.7,60.6 L599.1,61.7 L599.4,64.7 L600.4,69.8 L600.8,67.1 L601.1,69.4 L601.5,64.0 L601.8,65.0 L602.9,63.4 L603.2,63.1 L603.6,63.2 L603.9,62.3 L605.7,62.3 L606.0,60.7 L606.4,59.9 L607.8,59.5 L608.1,58.5 L608.5,57.7 L608.8,57.4 L609.2,55.9 L610.2,57.1 L610.6,57.3 L610.9,56.8 L611.3,56.5 L611.6,55.9 L612.7,55.8 L613.0,55.1 L613.4,55.0 L613.7,54.8 L614.1,54.1 L615.1,54.7 L615.5,53.8 L615.8,53.4 L616.2,54.0 L616.5,53.8 L617.6,53.7 L617.9,53.1 L618.3,53.3 L618.6,53.1 L618.9,52.7 L620.0,53.0 L620.3,52.2 L620.7,51.2 L621.0,51.3 L621.4,51.5 L622.8,50.6 L623.1,50.5 L623.5,50.9 L623.8,51.1 L624.9,51.1 L625.2,51.2 L625.6,51.3 L625.9,51.4 L626.3,51.7 L627.3,52.1 L627.7,51.0 L628.0,51.0 L628.4,51.1 L628.7,51.3 L629.8,51.0 L630.1,51.0 L630.5,50.2 L630.8,50.3 L631.2,50.1 L632.2,50.3 L632.6,50.4 L632.9,51.0 L633.3,50.3 L633.6,50.5 L634.7,50.6 L635.0,49.7 L635.4,50.8 L635.7,49.7 L636.1,48.0 L637.1,49.2 L637.4,49.1 L637.8,48.3 L638.1,48.7 L638.5,49.2 L639.5,48.8 L639.9,48.7 L640.2,48.0 L640.6,48.2 L640.9,49.3 L642.0,49.3 L642.3,47.8 L642.7,46.8 L643.0,47.0 L643.4,47.3 L644.4,46.7 L644.8,46.3 L645.1,47.0 L645.5,46.4 L645.8,45.5 L646.9,45.2 L647.2,45.9 L647.6,45.4 L647.9,44.1 L648.3,44.8 L649.3,44.7 L649.7,45.2 L650.0,44.8 L650.4,44.4 L650.7,44.5 L651.8,45.2 L652.1,45.4 L652.5,47.5 L652.8,46.0 L653.2,45.4 L654.2,45.7 L654.6,46.3 L654.9,45.9 L655.3,46.2 L655.6,45.3 L656.6,45.5 L657.0,45.2 L657.3,46.1 L657.7,46.9 L658.0,46.7 L659.1,46.1 L659.4,45.6 L659.8,46.7 L660.1,46.6 L660.5,46.4 L661.5,45.3 L661.9,45.7 L662.2,45.6 L662.6,44.1 L662.9,43.6 L664.0,43.9 L664.3,44.1 L664.7,44.3 L665.0,43.9 L665.4,44.2 L666.4,45.0 L666.8,44.8 L667.1,43.6 L667.5,42.6 L667.8,43.6 L668.9,43.2 L669.2,42.3 L669.6,43.1 L669.9,43.0 L671.3,42.8 L671.7,43.2 L672.0,44.5 L672.4,44.9 L672.7,45.0 L673.8,44.9 L674.1,45.0 L674.5,46.0 L674.8,45.7 L675.1,46.5 L676.2,45.6 L676.5,45.7 L676.9,45.9 L677.2,46.5 L677.6,48.0 L678.6,48.0 L679.0,50.3 L679.3,50.7 L679.7,49.1 L680.0,51.1 L681.1,49.7 L681.4,49.3 L681.8,48.4 L682.1,48.3 L682.5,48.3 L683.5,49.0 L683.9,48.7 L684.2,48.6 L684.6,48.3 L684.9,48.0 L686.0,48.1 L686.3,48.8 L686.7,48.8 L687.0,48.6 L687.4,47.1 L688.4,48.1 L688.8,48.6 L689.1,48.9 L689.5,48.6 L689.8,48.2 L690.9,47.1 L691.2,45.7 L691.6,46.3 L693.3,46.6 L693.6,46.7 L694.0,46.8 L694.7,46.5 L695.7,46.4 L696.1,47.1 L696.4,47.0 L696.8,46.6 L697.1,46.8 L698.2,46.1 L698.5,45.4 L698.9,45.3 L699.2,44.7 L699.6,44.0 L700.6,44.6 L701.0,45.3 L701.3,45.7 L701.7,44.9 L702.0,44.7 L703.4,43.4 L703.8,43.6 L704.1,43.9 L704.5,44.5 L705.5,45.8 L705.9,44.7 L706.2,43.8 L706.6,44.2 L706.9,46.8 L708.0,44.6 L708.3,44.4 L708.7,42.6 L709.0,42.3 L709.4,43.9 L710.4,43.6 L710.8,43.3 L711.1,42.5 L711.5,41.4 L711.8,41.5 L712.8,42.3 L713.2,42.2 L713.5,40.8 L713.9,40.0 L714.2,39.8 L715.3,39.6 L715.6,41.3 L716.0,43.5 L716.3,42.5 L716.7,43.8 L717.7,47.2 L718.1,45.8 L718.4,45.1 L718.8,46.9 L719.1,46.8 L720.2,47.2 L720.5,46.8 L720.9,46.4 L721.2,48.5 L721.6,49.4 L722.6,50.3 L723.0,50.1 L723.3,48.0 L723.7,48.1 L724.0,48.1 L725.1,48.9 L725.4,48.6 L725.8,45.9 L726.1,47.3 L727.9,45.3 L728.2,42.1 L728.6,41.9 L728.9,42.1 L730.0,42.6 L730.3,41.8 L730.6,41.7 L731.0,42.2 L731.3,42.2 L732.4,42.1 L732.7,42.2 L733.1,43.7 L733.4,44.3 L733.8,44.4 L734.8,44.8 L735.2,45.5 L735.5,45.5 L735.9,46.1 L736.2,45.2 L737.3,45.6 L737.6,45.9 L738.0,44.3 L738.3,43.1 L738.7,44.8 L739.7,45.2 L740.1,45.7 L740.4,46.2 L740.8,46.0 L741.1,46.3 L742.2,47.8 L742.5,46.6 L742.9,48.0 L743.2,46.3 L743.6,45.8 L744.6,45.2 L745.0,45.7 L745.3,45.0 L745.7,46.5 L746.0,44.9 L747.1,44.7 L747.4,44.8 L747.8,43.9 L748.1,45.4 L748.5,46.2 L749.8,46.5 L750.2,45.8 L750.5,46.2 L750.9,43.8 L751.9,42.2 L752.3,42.2 L752.6,41.6 L753.0,42.3 L753.3,43.3 L754.4,43.5 L754.7,43.9 L755.1,43.7 L755.4,44.3 L755.8,44.2 L756.8,43.4 L757.2,44.0 L757.5,44.7 L757.9,44.7 L758.2,43.1 L759.3,43.3 L759.6,43.6 L760.0,44.0 L760.3,44.1 L760.7,43.7 L761.7,43.6 L762.1,43.6 L762.4,43.2 L762.8,43.2 L763.1,43.8 L764.2,43.8 L764.5,43.9 L764.9,43.4 L765.2,43.1 L765.6,44.1 L766.6,42.4 L767.0,41.7 L767.3,40.5 L767.7,41.4 L768.0,41.2" fill="none" stroke="#eb6834" stroke-width="2" stroke-linejoin="round"/>
<path d="M58.0,102.6 L58.3,102.9 L58.7,103.7 L59.0,104.5 L59.4,104.5 L60.4,104.8 L60.8,104.9 L61.1,104.9 L61.5,103.4 L61.8,104.1 L62.9,104.2 L63.2,103.8 L63.6,103.1 L63.9,103.1 L64.3,103.5 L65.3,102.6 L66.0,107.3 L66.4,109.8 L66.7,112.8 L67.8,112.2 L68.1,109.9 L68.5,108.8 L68.8,109.1 L69.2,109.2 L70.2,108.8 L70.6,108.9 L70.9,108.8 L71.3,108.6 L71.6,108.8 L72.7,108.8 L73.0,107.5 L73.4,108.1 L73.7,101.7 L74.1,102.3 L75.1,103.9 L75.5,103.6 L75.8,104.3 L76.2,103.7 L76.5,105.6 L77.5,103.7 L77.9,103.4 L78.2,102.7 L78.6,102.8 L78.9,102.6 L80.0,100.6 L80.3,100.7 L80.7,100.7 L81.0,101.0 L81.4,99.7 L82.4,101.2 L82.8,101.6 L83.1,101.8 L83.5,102.1 L83.8,103.8 L84.9,105.2 L85.2,105.2 L85.6,104.5 L85.9,104.9 L86.3,104.8 L87.3,104.9 L87.7,106.5 L88.0,105.5 L88.4,104.7 L90.1,104.2 L90.5,103.7 L90.8,103.7 L91.2,103.7 L92.2,103.7 L92.6,103.2 L92.9,102.7 L93.3,103.3 L93.6,103.1 L94.7,104.7 L95.0,105.4 L95.4,105.7 L95.7,105.6 L96.0,105.3 L97.1,105.9 L97.4,106.7 L97.8,105.3 L98.1,105.6 L98.5,106.3 L99.5,107.5 L99.9,106.6 L100.2,106.2 L100.6,107.1 L100.9,107.2 L102.0,106.6 L102.3,107.2 L102.7,107.8 L103.0,108.0 L103.4,106.8 L104.4,107.9 L104.8,106.7 L105.1,107.7 L105.5,106.5 L105.8,106.5 L106.9,106.4 L107.2,104.7 L107.6,105.7 L107.9,105.4 L108.3,104.6 L109.3,104.6 L109.7,104.6 L110.0,104.6 L110.4,104.6 L110.7,104.6 L111.8,104.9 L112.1,104.9 L112.5,105.8 L112.8,105.5 L113.2,104.5 L114.5,104.9 L114.9,105.3 L115.2,105.2 L115.6,104.3 L116.6,105.3 L117.0,102.9 L117.3,103.2 L117.7,104.0 L118.0,104.2 L119.1,103.9 L119.4,103.4 L119.8,102.6 L120.1,103.5 L120.5,103.3 L121.5,103.0 L121.9,103.0 L122.2,101.8 L122.6,101.8 L122.9,102.3 L124.0,101.8 L124.3,101.8 L124.7,101.3 L125.0,101.6 L125.4,101.6 L126.4,101.6 L126.8,101.6 L127.1,101.8 L127.5,99.7 L127.8,100.5 L128.9,100.5 L129.2,100.5 L129.6,100.5 L129.9,100.4 L130.3,100.1 L131.3,99.7 L131.7,99.9 L132.0,100.2 L132.4,101.1 L132.7,101.3 L133.7,102.2 L134.1,102.5 L134.4,101.6 L134.8,101.3 L135.1,101.2 L136.2,101.9 L136.5,102.6 L136.9,102.8 L137.2,105.1 L137.6,105.8 L138.6,104.4 L139.0,104.5 L139.3,103.7 L139.7,103.6 L140.0,103.9 L141.1,104.9 L141.4,105.4 L141.8,104.7 L142.1,105.6 L142.5,105.2 L143.5,106.0 L143.9,106.4 L144.2,106.2 L144.6,108.1 L144.9,107.7 L146.0,107.6 L146.3,108.1 L146.7,108.8 L147.0,108.0 L147.4,107.9 L148.4,108.7 L148.8,108.2 L149.1,109.2 L149.5,108.0 L149.8,107.3 L150.9,106.8 L151.2,108.8 L151.5,109.6 L151.9,107.3 L152.2,109.5 L153.3,109.8 L153.6,110.9 L154.0,111.2 L154.3,110.0 L154.7,109.2 L155.7,110.6 L156.1,111.5 L156.4,111.1 L156.8,111.4 L157.1,111.6 L158.2,110.9 L158.5,111.3 L158.9,111.3 L159.2,112.4 L159.6,113.0 L160.6,111.2 L161.0,111.4 L161.3,111.6 L161.7,113.2 L162.0,115.1 L163.1,113.7 L163.4,115.0 L163.8,114.4 L164.1,113.9 L164.5,114.4 L165.5,112.6 L165.9,112.7 L166.2,113.7 L166.6,114.6 L166.9,114.5 L168.0,113.1 L168.3,113.3 L168.7,113.5 L169.0,113.4 L169.4,113.7 L170.4,114.9 L170.7,113.4 L171.1,113.1 L171.4,113.1 L171.8,116.6 L172.8,118.7 L173.2,119.3 L173.5,118.7 L173.9,120.4 L174.2,120.5 L175.3,119.3 L175.6,119.1 L176.0,119.1 L176.3,119.1 L176.7,119.1 L177.7,119.1 L178.1,119.1 L178.4,119.1 L178.8,118.9 L179.1,119.2 L180.2,120.0 L180.5,119.7 L180.9,119.4 L181.2,119.3 L181.6,119.3 L183.3,119.3 L183.7,119.3 L184.0,119.3 L185.4,119.3 L185.8,119.3 L186.1,120.5 L186.5,120.8 L187.5,121.9 L187.9,122.8 L188.2,121.5 L188.6,123.2 L188.9,124.1 L189.9,124.2 L190.3,124.3 L190.6,124.2 L191.0,123.7 L191.3,126.6 L192.4,128.7 L192.7,132.7 L193.4,133.7 L193.8,133.6 L194.8,134.2 L195.2,134.1 L195.5,134.1 L195.9,134.1 L196.2,134.1 L197.3,134.1 L197.6,134.1 L198.0,134.1 L198.3,134.1 L198.7,134.1 L199.7,134.1 L200.1,134.1 L200.4,134.1 L200.8,134.1 L201.1,134.4 L202.2,134.1 L202.5,133.4 L202.9,133.2 L203.2,136.9 L203.6,136.9 L204.6,136.7 L205.0,136.9 L205.3,138.6 L205.7,138.1 L206.0,139.2 L207.1,141.4 L207.4,141.0 L207.7,140.5 L208.1,140.1 L208.4,140.5 L209.5,141.0 L209.8,143.8 L210.2,143.4 L210.5,142.4 L210.9,140.5 L211.9,140.8 L212.3,140.8 L212.6,140.8 L213.0,140.8 L213.3,140.8 L214.4,141.2 L214.7,141.0 L215.1,141.2 L215.4,141.4 L215.8,140.2 L216.8,139.5 L217.2,139.6 L217.5,141.6 L217.9,141.5 L218.2,141.1 L219.3,139.6 L219.6,138.8 L220.0,138.1 L220.3,137.4 L222.1,137.2 L222.4,137.2 L222.8,137.2 L223.1,137.5 L224.5,138.9 L224.9,138.6 L225.2,134.0 L225.6,133.8 L226.6,134.5 L226.9,134.8 L227.3,135.1 L227.6,135.3 L228.0,135.6 L229.0,135.9 L229.4,138.2 L229.7,138.6 L230.1,140.6 L230.4,139.0 L231.5,135.2 L231.8,134.9 L232.2,133.9 L232.5,133.9 L232.9,133.7 L233.9,133.5 L234.3,133.9 L234.6,133.4 L235.0,133.7 L235.3,133.9 L236.4,132.8 L236.7,133.3 L237.1,133.7 L237.4,133.8 L237.8,134.2 L238.8,134.5 L239.2,134.7 L239.5,137.3 L239.9,138.9 L240.2,140.3 L241.6,144.8 L242.0,146.3 L242.3,146.1 L242.7,149.9 L243.7,152.1 L244.1,151.6 L244.4,151.8 L244.8,151.7 L245.1,151.6 L246.1,151.5 L246.5,151.5 L246.8,151.5 L247.2,151.5 L247.5,151.5 L248.6,151.5 L248.9,151.7 L249.3,152.8 L249.6,153.3 L250.0,153.2 L251.0,153.4 L251.4,152.9 L251.7,153.2 L252.1,153.2 L252.4,153.2 L253.5,153.2 L253.8,153.2 L254.2,153.2 L254.5,153.2 L254.9,153.5 L255.9,153.0 L256.3,153.0 L256.6,152.7 L257.0,152.8 L257.3,152.8 L258.4,152.3 L258.7,152.2 L259.1,152.7 L259.4,152.8 L259.8,152.8 L260.8,153.4 L261.2,153.1 L261.5,152.4 L261.9,152.2 L262.2,152.2 L263.3,152.8 L263.6,152.9 L263.9,151.8 L264.3,151.8 L264.6,151.8 L265.7,151.8 L266.0,152.0 L266.4,153.0 L266.7,154.3 L267.1,154.6 L268.1,155.2 L268.5,155.1 L268.8,155.6 L269.2,155.8 L269.5,155.8 L270.6,156.6 L270.9,156.8 L271.3,157.0 L271.6,155.3 L272.0,156.0 L273.0,155.7 L273.4,155.1 L273.7,155.3 L274.1,155.5 L274.4,155.8 L275.5,156.2 L275.8,156.1 L276.2,157.7 L276.9,159.2 L277.9,159.5 L278.3,159.3 L278.6,159.9 L279.0,159.3 L279.3,159.7 L280.4,161.0 L280.7,159.0 L281.1,158.7 L281.4,158.7 L281.8,158.7 L282.8,158.7 L283.1,158.9 L283.5,159.2 L283.8,160.3 L284.2,157.8 L285.2,160.6 L285.6,160.1 L285.9,160.1 L286.3,160.1 L286.6,160.1 L287.7,160.5 L288.0,160.5 L288.4,160.7 L288.7,160.7 L289.1,160.7 L290.1,160.7 L290.5,160.7 L290.8,160.7 L291.2,160.7 L291.5,160.7 L292.6,161.1 L292.9,161.0 L293.3,161.0 L293.6,161.6 L294.0,159.8 L295.0,160.0 L295.4,159.9 L295.7,161.5 L296.1,160.6 L296.4,160.1 L297.5,161.4 L297.8,158.6 L298.2,157.1 L298.5,157.3 L298.9,156.7 L299.9,157.0 L300.3,155.7 L300.6,155.6 L300.9,156.1 L301.3,157.6 L302.3,156.8 L302.7,157.0 L303.0,158.2 L303.4,158.4 L303.7,158.6 L304.8,158.8 L305.1,157.0 L305.5,157.0 L305.8,157.0 L306.2,157.0 L307.2,156.3 L307.6,158.4 L307.9,158.2 L308.3,157.7 L308.6,158.5 L310.4,158.9 L310.7,159.8 L311.1,160.1 L312.5,162.2 L312.8,160.6 L313.2,160.5 L313.5,160.0 L314.6,160.1 L314.9,160.0 L315.3,158.8 L315.6,158.8 L316.0,158.5 L317.0,158.0 L317.4,158.5 L317.7,158.5 L318.1,158.7 L318.4,158.8 L319.5,159.3 L319.8,157.6 L320.1,157.0 L320.8,156.4 L321.9,157.4 L322.2,157.4 L322.6,157.1 L322.9,157.7 L323.3,157.8 L324.3,157.9 L324.7,157.9 L325.0,157.3 L325.4,157.5 L325.7,157.1 L326.8,157.8 L327.1,157.5 L327.5,159.2 L327.8,159.2 L328.2,159.8 L329.2,160.6 L329.6,159.5 L329.9,161.1 L330.3,161.2 L330.6,161.7 L331.7,164.8 L332.0,163.4 L332.4,161.3 L332.7,159.9 L333.1,159.1 L334.1,157.6 L334.5,157.3 L334.8,157.3 L335.2,157.3 L335.5,157.3 L336.6,157.4 L336.9,160.4 L337.3,159.1 L337.6,163.9 L338.0,164.9 L339.0,166.1 L339.3,166.0 L339.7,165.4 L340.0,166.0 L340.4,166.1 L341.4,164.8 L341.8,165.0 L342.1,164.9 L342.5,164.4 L342.8,164.4 L343.9,164.4 L344.2,164.4 L344.6,164.4 L344.9,164.4 L346.7,164.3 L347.0,164.1 L347.4,163.9 L347.7,163.9 L348.8,163.9 L349.1,164.3 L349.5,164.2 L349.8,163.7 L350.2,163.6 L351.2,165.2 L351.9,165.6 L352.3,165.6 L352.6,164.8 L353.7,164.9 L354.0,166.0 L354.4,167.1 L354.7,166.3 L355.1,167.0 L356.1,167.5 L356.5,168.2 L356.8,168.2 L357.1,168.1 L357.5,168.3 L358.5,167.6 L358.9,168.4 L359.2,169.0 L359.6,169.4 L359.9,170.2 L361.0,169.7 L361.3,170.0 L361.7,170.7 L362.0,171.0 L362.4,171.4 L363.4,171.9 L363.8,171.9 L364.1,172.3 L364.5,171.6 L364.8,171.9 L365.9,170.8 L366.2,171.4 L366.6,171.6 L366.9,171.9 L367.3,171.5 L368.7,172.4 L369.0,172.6 L369.4,173.4 L369.7,171.1 L370.8,170.2 L371.1,170.5 L371.5,170.5 L371.8,170.5 L372.2,172.4 L373.2,171.6 L373.6,171.4 L373.9,170.9 L374.3,171.1 L374.6,171.2 L375.6,170.2 L376.0,169.8 L376.3,169.8 L376.7,169.8 L377.0,171.1 L378.1,172.0 L378.4,171.0 L378.8,170.7 L379.1,169.6 L379.5,169.6 L380.5,169.5 L380.9,169.2 L381.2,169.4 L381.6,169.0 L381.9,168.6 L383.0,168.8 L383.3,168.6 L383.7,168.4 L384.0,168.6 L384.4,168.4 L385.4,168.6 L385.8,168.5 L386.1,169.3 L386.5,169.8 L386.8,169.9 L387.9,169.7 L388.2,165.3 L388.6,163.3 L388.9,164.1 L389.3,166.6 L390.3,166.2 L390.7,164.7 L391.0,167.0 L391.4,168.1 L391.7,168.7 L392.8,170.7 L393.1,169.6 L393.5,169.3 L393.8,168.9 L394.2,169.3 L395.2,168.8 L395.5,168.5 L395.9,168.5 L396.2,168.5 L396.6,168.5 L397.6,168.5 L398.0,168.8 L398.3,168.8 L398.7,168.6 L399.0,169.0 L400.1,169.0 L400.4,168.9 L400.8,172.2 L401.1,172.8 L401.5,173.3 L402.5,174.8 L402.9,176.0 L403.2,176.0 L403.6,178.2 L403.9,180.1 L405.0,180.9 L405.3,181.7 L405.7,181.4 L406.0,181.5 L406.4,181.4 L407.4,182.8 L407.8,183.3 L408.1,184.4 L408.5,183.9 L408.8,183.3 L409.9,184.4 L410.2,184.6 L410.6,183.9 L410.9,183.9 L411.3,184.0 L412.3,184.7 L412.7,185.0 L413.0,184.8 L413.3,184.8 L413.7,184.9 L414.7,185.0 L415.1,185.3 L415.4,186.6 L415.8,187.9 L416.1,187.6 L417.2,189.9 L417.5,189.8 L417.9,189.2 L418.2,191.7 L418.6,192.1 L419.6,191.1 L420.0,191.7 L420.3,191.7 L420.7,191.7 L421.0,191.7 L422.1,191.7 L422.4,191.7 L422.8,191.7 L423.1,191.7 L423.5,191.7 L424.5,191.7 L424.9,191.7 L425.2,191.7 L425.6,191.7 L425.9,192.6 L427.0,192.9 L427.3,192.2 L427.7,192.0 L428.0,191.7 L428.4,192.0 L429.4,191.0 L429.8,192.1 L430.1,192.1 L430.5,192.1 L430.8,192.1 L431.8,192.1 L432.2,192.1 L432.5,192.1 L432.9,192.3 L433.2,192.2 L434.3,192.6 L434.6,192.6 L435.0,192.6 L435.3,192.6 L435.7,192.6 L437.4,192.6 L437.8,192.6 L438.1,192.6 L439.5,192.6 L439.9,192.6 L440.2,194.1 L440.6,193.0 L441.6,193.4 L442.0,191.0 L442.3,191.9 L442.7,191.9 L443.0,190.5 L444.1,190.5 L444.4,192.6 L444.8,192.3 L445.1,193.2 L445.5,192.6 L446.5,192.2 L446.9,191.9 L447.2,191.6 L447.6,191.6 L449.0,191.6 L449.3,191.6 L449.7,191.6 L450.0,191.6 L450.4,191.6 L451.4,191.6 L451.7,191.6 L452.1,191.4 L452.4,191.3 L452.8,192.5 L453.8,194.0 L454.2,194.4 L454.5,194.4 L454.9,194.0 L455.2,194.8 L456.3,194.6 L456.6,196.0 L457.0,197.0 L457.3,199.3 L457.7,198.6 L458.7,198.2 L459.1,198.5 L459.4,198.5 L459.8,197.7 L460.1,197.2 L461.2,198.0 L461.5,196.3 L461.9,197.1 L462.2,195.4 L462.6,195.1 L463.6,195.1 L464.0,195.1 L464.3,194.7 L464.7,195.1 L465.0,195.5 L466.1,194.9 L466.4,195.3 L466.8,195.5 L467.1,194.1 L467.5,194.3 L468.5,194.5 L468.9,194.5 L469.2,194.5 L469.5,194.0 L471.3,193.9 L471.6,194.6 L472.0,195.2 L472.3,196.2 L473.4,195.8 L473.7,196.3 L474.1,196.0 L474.4,198.6 L474.8,198.7 L475.8,199.3 L476.2,202.0 L476.5,203.2 L476.9,202.4 L477.2,203.9 L478.3,204.2 L478.6,205.1 L479.0,206.4 L479.7,206.9 L480.7,206.2 L481.1,205.6 L481.4,207.2 L481.8,207.8 L482.1,209.2 L483.2,208.6 L483.5,207.5 L483.9,207.3 L484.2,207.7 L484.6,208.0 L485.6,208.0 L486.0,208.4 L486.3,208.0 L486.7,206.7 L487.0,208.0 L488.0,208.3 L488.4,206.9 L488.7,207.3 L489.1,206.3 L489.4,206.8 L490.5,205.2 L490.8,205.2 L491.2,206.4 L491.5,206.5 L491.9,205.5 L492.9,204.5 L493.3,205.4 L493.6,205.5 L494.0,206.5 L494.3,206.2 L495.7,207.4 L496.1,207.6 L496.4,207.6 L496.8,207.7 L497.8,209.4 L498.2,208.0 L498.5,207.4 L498.9,208.3 L499.2,207.6 L500.3,207.8 L500.6,207.9 L501.0,208.3 L501.3,208.6 L501.7,208.8 L502.7,208.4 L503.1,208.8 L503.4,208.6 L503.8,208.1 L504.1,208.7 L505.2,208.9 L505.5,208.0 L505.9,208.3 L506.2,208.1 L506.5,208.4 L507.6,208.2 L507.9,209.0 L508.3,208.2 L508.6,209.4 L509.0,210.1 L510.0,210.1 L510.4,210.0 L510.7,210.1 L511.1,211.1 L511.4,210.9 L512.5,209.8 L512.8,210.7 L513.2,210.1 L513.5,209.9 L513.9,209.9 L514.9,210.9 L515.3,209.7 L515.6,209.8 L516.0,208.6 L516.3,207.8 L517.4,207.6 L517.7,207.6 L518.1,207.2 L518.4,207.2 L518.8,206.8 L519.8,206.9 L520.2,206.9 L520.5,206.9 L520.9,206.9 L521.2,206.9 L522.3,206.7 L522.6,206.5 L523.0,206.6 L523.3,206.7 L523.7,206.5 L524.7,207.9 L525.1,207.4 L525.4,209.7 L525.7,210.4 L526.1,209.8 L527.1,210.2 L527.5,210.6 L527.8,210.1 L528.2,209.7 L528.5,209.2 L529.6,209.4 L529.9,209.4 L530.3,209.4 L530.6,209.5 L531.0,210.2 L532.0,210.7 L532.4,211.9 L532.7,215.5 L533.1,215.0 L533.4,216.3 L534.5,216.6 L534.8,217.5 L535.2,217.8 L535.5,218.4 L535.9,220.3 L536.9,219.2 L537.3,219.4 L537.6,219.8 L538.0,219.5 L538.3,220.5 L539.4,218.0 L539.7,217.7 L540.1,217.7 L540.4,217.2 L540.8,218.5 L541.8,222.9 L542.2,224.4 L542.5,224.3 L542.9,225.6 L543.2,226.2 L544.2,225.0 L544.6,224.8 L544.9,225.3 L545.3,225.3 L545.6,226.1 L546.7,225.8 L547.0,226.1 L547.4,225.1 L547.7,225.4 L548.1,228.0 L549.1,226.6 L549.5,229.2 L549.8,229.4 L550.2,232.3 L550.5,230.3 L551.6,227.2 L551.9,226.4 L552.3,226.4 L552.6,226.4 L553.0,226.4 L554.0,226.4 L554.4,227.1 L554.7,227.1 L555.1,226.7 L555.4,227.3 L556.5,227.1 L556.8,227.6 L557.2,228.1 L557.5,226.5 L557.9,227.6 L558.9,227.1 L559.3,226.0 L559.6,227.9 L560.0,228.3 L560.3,228.6 L561.4,228.2 L561.7,228.3 L562.1,230.8 L562.4,234.1 L562.7,233.9 L563.8,233.1 L564.1,233.7 L565.2,233.2 L566.2,233.8 L566.6,234.2 L567.3,234.2 L567.6,234.2 L568.7,234.2 L569.0,234.2 L569.4,233.9 L569.7,234.0 L570.1,234.8 L571.1,234.4 L571.5,234.9 L571.8,235.4 L572.2,233.9 L572.5,233.6 L573.6,233.4 L573.9,233.6 L574.3,233.6 L574.6,235.0 L575.0,235.3 L576.4,234.0 L576.7,234.6 L577.1,234.7 L577.4,234.0 L578.5,234.9 L578.8,236.1 L579.2,235.7 L579.5,235.8 L579.9,237.4 L580.9,236.9 L581.2,236.7 L581.6,236.4 L581.9,236.4 L582.3,236.2 L583.3,237.1 L583.7,237.9 L584.0,239.7 L584.4,243.7 L584.7,245.5 L585.8,245.8 L586.1,246.0 L586.5,245.8 L586.8,246.5 L587.2,247.3 L588.2,246.7 L588.6,247.1 L588.9,246.9 L589.3,248.0 L589.6,249.0 L590.7,248.6 L591.0,249.3 L591.4,250.9 L591.7,252.5 L592.1,251.7 L593.1,251.9 L593.5,252.3 L593.8,252.4 L594.2,252.3 L594.5,250.9 L595.6,251.3 L595.9,251.3 L596.3,251.3 L596.6,251.3 L597.0,251.3 L598.0,251.7 L598.4,251.0 L598.7,251.3 L599.1,250.9 L599.4,252.2 L600.4,251.3 L600.8,247.5 L601.1,248.1 L601.5,242.4 L601.8,244.3 L602.9,244.3 L603.2,244.3 L603.6,244.3 L603.9,244.3 L605.7,244.3 L606.0,244.3 L606.4,244.3 L607.8,245.6 L608.1,245.0 L608.5,245.5 L608.8,245.6 L609.2,245.4 L610.2,245.3 L610.6,244.2 L610.9,243.8 L611.3,242.8 L611.6,242.8 L612.7,242.4 L613.0,241.6 L613.4,242.7 L613.7,242.0 L614.1,241.4 L615.1,241.6 L615.5,241.6 L615.8,241.8 L616.2,242.1 L616.5,242.0 L617.6,243.9 L617.9,244.2 L618.3,243.7 L618.6,245.2 L618.9,245.2 L620.0,245.1 L620.3,245.3 L620.7,245.3 L621.0,245.3 L621.4,245.3 L622.8,245.3 L623.1,245.3 L623.5,244.6 L623.8,243.4 L624.9,243.5 L625.2,243.3 L625.6,243.3 L625.9,243.6 L626.3,243.7 L627.3,245.5 L627.7,245.1 L628.0,245.7 L628.4,246.1 L628.7,246.4 L629.8,245.9 L630.1,245.6 L630.5,245.3 L630.8,246.1 L631.2,247.1 L632.2,247.0 L632.6,247.1 L632.9,247.1 L633.3,247.6 L633.6,248.8 L634.7,248.8 L635.0,248.1 L635.4,249.0 L635.7,248.3 L636.1,247.6 L637.1,248.4 L637.4,248.4 L637.8,248.5 L638.1,248.6 L638.5,249.3 L639.5,248.2 L639.9,249.2 L640.2,249.0 L640.6,251.1 L640.9,252.8 L642.0,252.3 L642.3,251.7 L642.7,251.8 L643.0,252.0 L643.4,252.0 L644.4,252.0 L644.8,252.0 L645.1,252.0 L645.5,252.0 L645.8,252.0 L646.9,251.7 L647.2,251.8 L647.6,252.1 L647.9,251.8 L648.3,251.6 L649.3,252.0 L649.7,252.5 L650.0,251.7 L650.4,248.7 L650.7,249.2 L651.8,250.0 L652.1,250.7 L652.5,252.0 L652.8,250.5 L653.2,249.9 L654.2,251.3 L654.6,252.1 L654.9,251.8 L655.3,251.2 L655.6,251.4 L656.6,251.7 L657.0,251.9 L657.3,252.0 L657.7,253.5 L658.0,253.1 L659.1,253.1 L659.4,253.3 L659.8,254.4 L660.1,254.9 L660.5,254.4 L661.5,254.1 L661.9,255.3 L662.2,254.8 L662.6,255.0 L662.9,255.2 L664.0,255.2 L664.3,255.6 L664.7,256.6 L665.0,257.1 L665.4,256.9 L666.4,259.2 L666.8,259.8 L667.1,260.9 L667.5,260.5 L667.8,262.2 L668.9,262.2 L669.2,262.0 L669.6,262.2 L669.9,261.8 L671.3,262.6 L671.7,262.2 L672.0,262.2 L672.4,262.8 L672.7,263.2 L673.8,263.7 L674.1,264.3 L674.5,264.6 L674.8,263.6 L675.1,264.4 L676.2,264.4 L676.5,264.4 L676.9,264.4 L677.2,264.4 L677.6,264.5 L678.6,264.6 L679.0,265.7 L679.3,267.5 L679.7,266.0 L680.0,267.9 L681.1,266.5 L681.4,267.2 L681.8,267.0 L682.1,267.3 L682.5,267.4 L683.5,267.1 L683.9,268.1 L684.2,267.4 L684.6,267.2 L684.9,268.4 L686.0,269.5 L686.3,270.1 L686.7,268.9 L687.0,269.7 L687.4,269.1 L688.4,270.2 L688.8,270.4 L689.1,271.1 L689.5,271.5 L689.8,271.3 L690.9,271.9 L691.2,271.8 L691.6,271.8 L693.3,271.8 L693.6,271.8 L694.0,271.8 L694.7,271.8 L695.7,271.4 L696.1,271.2 L696.4,270.4 L696.8,271.0 L697.1,271.1 L698.2,272.0 L698.5,271.5 L698.9,271.2 L699.2,271.0 L699.6,271.0 L700.6,271.0 L701.0,271.0 L701.3,271.0 L701.7,271.4 L702.0,271.9 L703.4,272.2 L703.8,272.5 L704.1,272.8 L704.5,273.3 L705.5,273.9 L705.9,274.2 L706.2,274.5 L706.6,275.1 L706.9,276.9 L708.0,276.6 L708.3,276.8 L708.7,276.8 L709.0,276.8 L709.4,277.4 L710.4,277.4 L710.8,277.5 L711.1,279.8 L711.5,279.7 L711.8,280.1 L712.8,280.5 L713.2,280.2 L713.5,275.8 L713.9,277.4 L714.2,278.1 L715.3,278.8 L715.6,280.0 L716.0,280.0 L716.3,280.9 L716.7,281.6 L717.7,286.4 L718.1,286.4 L718.4,285.1 L718.8,287.8 L719.1,288.9 L720.2,289.3 L720.5,289.0 L720.9,288.9 L721.2,293.1 L721.6,294.6 L722.6,295.5 L723.0,295.6 L723.3,293.2 L723.7,294.2 L724.0,294.2 L725.1,294.2 L725.4,294.2 L725.8,294.1 L726.1,294.4 L727.9,292.9 L728.2,292.8 L728.6,292.8 L728.9,292.8 L730.0,292.8 L730.3,292.8 L730.6,292.8 L731.0,293.5 L731.3,294.1 L732.4,293.5 L732.7,294.1 L733.1,296.0 L733.4,296.0 L733.8,294.9 L734.8,296.5 L735.2,297.3 L735.5,297.2 L735.9,297.5 L736.2,297.1 L737.3,298.1 L737.6,299.2 L738.0,299.4 L738.3,299.0 L738.7,302.3 L739.7,302.5 L740.1,302.3 L740.4,301.7 L740.8,300.2 L741.1,300.4 L742.2,300.4 L742.5,300.7 L742.9,301.3 L743.2,301.1 L743.6,300.5 L744.6,301.5 L745.0,303.1 L745.3,302.7 L745.7,303.7 L746.0,303.3 L747.1,304.4 L747.4,305.6 L747.8,305.6 L748.1,307.2 L748.5,307.1 L749.8,307.7 L750.2,310.1 L750.5,310.8 L750.9,309.2 L751.9,309.0 L752.3,309.0 L752.6,309.0 L753.0,309.3 L753.3,309.1 L754.4,311.1 L754.7,311.7 L755.1,312.2 L755.4,312.7 L755.8,312.4 L756.8,312.3 L757.2,312.2 L757.5,313.3 L757.9,314.8 L758.2,315.7 L759.3,315.9 L759.6,316.2 L760.0,316.5 L760.3,318.2 L760.7,318.6 L761.7,318.5 L762.1,319.1 L762.4,318.8 L762.8,318.5 L763.1,318.1 L764.2,318.4 L764.5,318.9 L764.9,318.9 L765.2,320.1 L765.6,320.3 L766.6,320.4 L767.0,319.0 L767.3,319.1 L767.7,319.1 L768.0,319.6" fill="none" stroke="#2a78d6" stroke-width="2" stroke-linejoin="round"/>
<circle cx="768.0" cy="41.2" r="3.5" fill="#eb6834"/>
<text x="778" y="39.2" font-size="12" font-weight="600" fill="#eb6834">Buy &amp; hold STW.AX</text>
<text x="778" y="54.2" font-size="11" fill="#898781">166 (from 100)</text>
<circle cx="768.0" cy="319.6" r="3.5" fill="#2a78d6"/>
<text x="778" y="317.6" font-size="12" font-weight="600" fill="#2a78d6">Strategy</text>
<text x="778" y="332.6" font-size="11" fill="#898781">16 (from 100)</text>
<text x="58" y="16" font-size="12" fill="#0b0b0b" font-weight="600">Held-out period · equity indexed to 100 · log scale</text>
</svg>